<svg width="32" height="36" viewBox="0 0 32 36" fill="none" xmlns="http://www.w3.org/2000/svg">
<path fill-rule="evenodd" clip-rule="evenodd" d="M12.6805 2.33429C11.4056 3.17632 9.92131 4.44723 7.89208 6.18657L5.72541 8.04371C3.45419 9.99047 2.45349 10.8635 1.91996 12.0235C1.38644 13.1835 1.37485 14.5114 1.37485 17.5028V26.6903C1.37485 28.7484 1.376 30.2374 1.52867 31.373C1.67925 32.4929 1.96822 33.1876 2.4854 33.7047C3.00259 34.2219 3.69722 34.5109 4.81718 34.6615C5.95273 34.8141 7.44178 34.8153 9.49985 34.8153H22.4999C24.5579 34.8153 26.047 34.8141 27.1825 34.6615C28.3025 34.5109 28.9971 34.2219 29.5143 33.7047C30.0315 33.1876 30.3205 32.4929 30.471 31.373C30.6237 30.2374 30.6249 28.7484 30.6249 26.6903V17.5028C30.6249 14.5114 30.6133 13.1835 30.0797 12.0235C29.5462 10.8635 28.5455 9.99047 26.2743 8.04371L24.1076 6.18657C22.0784 4.44723 20.5941 3.17632 19.3192 2.33429C18.057 1.50063 17.0557 1.1263 15.9999 1.1263C14.944 1.1263 13.9427 1.50063 12.6805 2.33429ZM12.0834 1.43032C13.4409 0.533754 14.6512 0.0429688 15.9999 0.0429688C17.3485 0.0429688 18.5588 0.533754 19.9163 1.43032C21.2544 2.31414 22.7895 3.62992 24.7831 5.33867L27.0917 7.3175C29.2175 9.13934 30.4194 10.1694 31.064 11.5708C31.7085 12.9722 31.7084 14.5551 31.7082 17.3548L31.7082 26.7322C31.7082 28.7395 31.7082 30.3013 31.5447 31.5173C31.378 32.7574 31.0323 33.7188 30.2803 34.4708C29.5283 35.2228 28.567 35.5684 27.3269 35.7351C26.1108 35.8986 24.549 35.8986 22.5418 35.8986H9.45788C7.45065 35.8986 5.88888 35.8986 4.67283 35.7351C3.43274 35.5684 2.47139 35.2228 1.71937 34.4708C0.967353 33.7188 0.621724 32.7574 0.454998 31.5173C0.291503 30.3013 0.291509 28.7395 0.291517 26.7322L0.291517 17.5028C0.291517 17.4531 0.291514 17.4037 0.291511 17.3547C0.291316 14.5551 0.291206 12.9722 0.935739 11.5708C1.58027 10.1694 2.78222 9.13935 4.90798 7.31752C4.94517 7.28565 4.98263 7.25354 5.02038 7.22118L7.21665 5.33867C9.21019 3.62992 10.7453 2.31414 12.0834 1.43032Z" fill="black"/>
<path fill-rule="evenodd" clip-rule="evenodd" d="M10.0415 24.5238C10.0415 23.028 11.2541 21.8154 12.7498 21.8154H19.2498C20.7456 21.8154 21.9582 23.028 21.9582 24.5238V35.3571C21.9582 35.6563 21.7157 35.8988 21.4165 35.8988C21.1173 35.8988 20.8748 35.6563 20.8748 35.3571V24.5238C20.8748 23.6263 20.1473 22.8988 19.2498 22.8988H12.7498C11.8524 22.8988 11.1248 23.6263 11.1248 24.5238V35.3571C11.1248 35.6563 10.8823 35.8988 10.5832 35.8988C10.284 35.8988 10.0415 35.6563 10.0415 35.3571V24.5238Z" fill="black"/>
</svg>
