<svg width="46" height="43" viewBox="0 0 46 43" fill="none" xmlns="http://www.w3.org/2000/svg">
<path fill-rule="evenodd" clip-rule="evenodd" d="M22.9997 17.666C27.1878 17.666 30.583 14.2708 30.583 10.0827C30.583 5.89452 27.1878 2.49935 22.9997 2.49935C18.8115 2.49935 15.4163 5.89452 15.4163 10.0827C15.4163 14.2708 18.8115 17.666 22.9997 17.666ZM22.9997 18.7493C27.7861 18.7493 31.6663 14.8692 31.6663 10.0827C31.6663 5.29621 27.7861 1.41602 22.9997 1.41602C18.2132 1.41602 14.333 5.29621 14.333 10.0827C14.333 14.8692 18.2132 18.7493 22.9997 18.7493Z" fill="black"/>
<path fill-rule="evenodd" clip-rule="evenodd" d="M35.26 2.26676C34.0182 1.94347 32.7085 1.99475 31.4958 2.41417C30.2831 2.83358 29.2216 3.60237 28.4448 4.62377L27.5825 3.96801C28.4886 2.77647 29.727 1.87961 31.1417 1.39034C32.5564 0.901058 34.0843 0.841225 35.5329 1.21837C36.9816 1.59551 38.2863 2.39278 39.2828 3.50981C40.2794 4.62683 40.9232 6.0137 41.1332 7.49582C41.3433 8.97795 41.1102 10.4891 40.4633 11.839C39.8164 13.189 38.7846 14.3174 37.4978 15.0822C36.211 15.847 34.7267 16.2141 33.2317 16.1372C31.7368 16.0603 30.298 15.5429 29.0964 14.65L29.7426 13.7805C30.7725 14.5458 32.0059 14.9894 33.2874 15.0553C34.5689 15.1212 35.8412 14.8066 36.9443 14.151C38.0474 13.4953 38.9318 12.5281 39.4863 11.3709C40.0409 10.2137 40.2407 8.91833 40.0606 7.64784C39.8805 6.37735 39.3287 5.18852 38.4744 4.23099C37.6202 3.27347 36.5018 2.59005 35.26 2.26676Z" fill="black"/>
<path fill-rule="evenodd" clip-rule="evenodd" d="M10.7832 2.25563C12.0302 1.94014 13.3427 2.0015 14.5548 2.43195C15.7669 2.86241 16.8241 3.64263 17.5928 4.67394L18.4614 4.02654C17.5647 2.82343 16.3314 1.91324 14.9174 1.41108C13.5033 0.908925 11.9722 0.837344 10.5175 1.20539C9.06281 1.57344 7.74993 2.36459 6.74487 3.4788C5.73982 4.593 5.08774 5.98022 4.87109 7.46502C4.65444 8.94982 4.88295 10.4655 5.52772 11.8205C6.17249 13.1754 7.20457 14.3087 8.49344 15.0771C9.78232 15.8454 11.2701 16.2144 12.7686 16.1372C14.2672 16.06 15.7092 15.5402 16.9123 14.6435L16.2649 13.7749C15.2336 14.5435 13.9975 14.9891 12.7129 15.0553C11.4283 15.1214 10.153 14.8052 9.04818 14.1466C7.94335 13.4879 7.05865 12.5164 6.50594 11.355C5.95324 10.1935 5.75736 8.89422 5.94307 7.62144C6.12879 6.34865 6.68776 5.15952 7.54929 4.20441C8.41083 3.24931 9.53625 2.57113 10.7832 2.25563Z" fill="black"/>
<path fill-rule="evenodd" clip-rule="evenodd" d="M11.8846 28.5741C9.50334 31.0497 8.24252 34.191 7.57803 36.8304C6.96853 39.2513 8.95061 41.4 11.6196 41.4H34.38C37.0491 41.4 39.0311 39.2513 38.4216 36.8304C37.7572 34.191 36.4963 31.0497 34.1151 28.5741C31.7491 26.1142 28.2431 24.275 22.9998 24.275C17.7566 24.275 14.2506 26.1142 11.8846 28.5741ZM11.1038 27.8231C13.6794 25.1453 17.4698 23.1917 22.9998 23.1917C28.5299 23.1917 32.3203 25.1453 34.8959 27.8231C37.4564 30.4851 38.7824 33.8262 39.4722 36.5659C40.2949 39.8335 37.5771 42.4833 34.38 42.4833H11.6196C8.42256 42.4833 5.70481 39.8335 6.52748 36.5659C7.21722 33.8262 8.54331 30.4851 11.1038 27.8231Z" fill="black"/>
<path fill-rule="evenodd" clip-rule="evenodd" d="M27.3976 23.6588C34.5736 25.2818 37.7397 30.8235 39.1271 35.3316H39.8915C42.7532 35.3316 44.7968 32.8822 43.9119 30.3517C42.4188 26.0814 39.4427 21.2414 33.621 21.2414C31.005 21.2414 28.9785 22.21 27.3976 23.6588ZM25.8982 23.6302C27.7365 21.6166 30.2468 20.158 33.621 20.158C40.1981 20.158 43.4177 25.6561 44.9346 29.9941C46.1238 33.3953 43.3137 36.415 39.8915 36.415H38.3164L38.2032 36.0238C36.8744 31.4311 33.7271 25.7788 26.2094 24.5298L25.2261 24.3664L25.8982 23.6302Z" fill="black"/>
<path fill-rule="evenodd" clip-rule="evenodd" d="M12.3783 21.2414C6.55662 21.2414 3.58046 26.0814 2.08731 30.3517C1.20248 32.8822 3.24604 35.3316 6.10775 35.3316H6.87257C8.25996 30.8236 11.426 25.282 18.6018 23.6589C17.0208 22.21 14.9944 21.2414 12.3783 21.2414ZM1.06469 29.9941C2.58154 25.6561 5.80127 20.158 12.3783 20.158C15.7526 20.158 18.2628 21.6167 20.1012 23.6303L20.7732 24.3665L19.7899 24.5298C12.2725 25.779 9.12527 31.4312 7.79648 36.0238L7.68332 36.415H6.10775C2.68555 36.415 -0.124599 33.3953 1.06469 29.9941Z" fill="black"/>
</svg>
